<?xml version="1.0" encoding="UTF-8"?> <!-- Generator: Adobe Illustrator 25.0.1, SVG Export Plug-In . SVG Version: 6.00 Build 0) --> <svg xmlns="http://www.w3.org/2000/svg" xmlns:xlink="http://www.w3.org/1999/xlink" version="1.1" id="Layer_1" x="0px" y="0px" viewBox="0 0 178.2 48.4" style="enable-background:new 0 0 178.2 48.4;" xml:space="preserve"> <style type="text/css"> .st0{fill:#FCFCFC;} .st1{fill:#FFFFFF;} .st2{fill:#F2911B;} </style> <g> <g> <g> <path class="st0" d="M63.7,29.4c-1.1,0-2.3-0.3-3.2-0.8c-0.9-0.5-1.7-1.3-2.3-2.3c-0.6-1-0.9-2.2-0.8-3.3c0-1.1,0.2-2.3,0.8-3.3 c0.5-0.9,1.2-1.7,2.1-2.3c1.7-1,3.8-1.1,5.5-0.3c0.8,0.4,1.4,0.9,1.9,1.5v-6.2c0-0.3,0.1-0.6,0.3-0.9c0.2-0.2,0.5-0.3,0.8-0.3 c0.6,0,1.1,0.4,1.2,1c0,0.1,0,0.1,0,0.2V23c0,1.1-0.3,2.3-0.8,3.3C68.1,28.2,66,29.4,63.7,29.4L63.7,29.4z M63.7,27.4 c0.7,0,1.5-0.2,2.1-0.6c0.6-0.4,1.1-0.9,1.4-1.6c0.7-1.4,0.7-3,0-4.4c-0.3-0.6-0.8-1.2-1.4-1.5c-1.3-0.7-2.9-0.7-4.2,0 c-0.6,0.4-1.1,0.9-1.5,1.5c-0.7,1.4-0.7,3,0,4.4c0.3,0.6,0.9,1.2,1.5,1.6C62.3,27.2,63,27.4,63.7,27.4z"></path> <path class="st0" d="M77.6,29.4c-1.1,0-2.1-0.3-3-0.8c-0.9-0.6-1.6-1.3-2.1-2.3c-0.5-1-0.8-2.1-0.8-3.3c0-1.1,0.3-2.3,0.8-3.3 c0.5-1,1.3-1.7,2.3-2.3c3-1.8,6.9-0.8,8.7,2.2c0,0,0,0,0,0.1c0.6,1,0.9,2.1,0.8,3.3h-0.9c0,1.1-0.2,2.3-0.8,3.3 c-0.5,0.9-1.2,1.7-2.1,2.3C79.8,29.2,78.7,29.5,77.6,29.4z M78.1,27.4c0.7,0,1.5-0.2,2.1-0.6c0.6-0.4,1.1-0.9,1.4-1.5 c0.7-1.4,0.7-3,0-4.4c-1.1-2-3.6-2.7-5.5-1.6c0,0-0.1,0-0.1,0.1c-0.6,0.4-1.1,0.9-1.5,1.5c-0.7,1.4-0.7,3,0,4.4 c0.3,0.6,0.9,1.2,1.5,1.5C76.6,27.2,77.4,27.4,78.1,27.4z M83.3,29.4c-0.3,0-0.6-0.1-0.8-0.3c-0.2-0.2-0.3-0.5-0.3-0.8v-3.5 l0.4-2.4l1.9,0.8v5.1c0,0.3-0.1,0.6-0.3,0.8C83.9,29.3,83.6,29.4,83.3,29.4L83.3,29.4z"></path> <path class="st0" d="M85.6,19.2c-0.3,0-0.6-0.1-0.8-0.3c-0.2-0.2-0.3-0.4-0.3-0.7c0-0.3,0.1-0.5,0.3-0.7c0.2-0.2,0.5-0.3,0.8-0.3 h5.3c0.3,0,0.6,0.1,0.8,0.3c0.2,0.2,0.3,0.5,0.3,0.7c0,0.3-0.1,0.5-0.3,0.7c-0.2,0.2-0.5,0.3-0.8,0.3H85.6z M90.7,29.4 c-0.7,0-1.5-0.2-2.1-0.6c-0.6-0.4-1.1-0.9-1.4-1.6c-0.4-0.7-0.5-1.5-0.5-2.3v-11c0-0.3,0.1-0.6,0.3-0.8c0.5-0.4,1.2-0.4,1.7,0 c0.2,0.2,0.3,0.5,0.3,0.8v11c0,0.6,0.2,1.1,0.5,1.5c0.3,0.4,0.8,0.6,1.2,0.6h0.8c0.3,0,0.5,0.1,0.7,0.3c0.2,0.2,0.3,0.5,0.3,0.8 c0,0.3-0.1,0.6-0.4,0.8c-0.3,0.2-0.6,0.3-1,0.3L90.7,29.4z"></path> <path class="st0" d="M98.8,29.4c-1.1,0-2.1-0.3-3-0.8c-0.9-0.6-1.6-1.3-2.1-2.3c-0.5-1-0.8-2.1-0.8-3.3c0-1.1,0.3-2.3,0.8-3.3 c0.5-1,1.3-1.7,2.3-2.3c3-1.8,6.9-0.8,8.7,2.2c0,0,0,0,0,0.1c0.6,1,0.9,2.1,0.8,3.3h-0.9c0,1.1-0.2,2.3-0.8,3.3 c-0.5,0.9-1.2,1.7-2.1,2.3C100.9,29.2,99.8,29.5,98.8,29.4z M99.2,27.4c0.7,0,1.5-0.2,2.1-0.6c0.6-0.4,1.1-0.9,1.4-1.5 c0.7-1.4,0.7-3,0-4.4c-1-2-3.4-2.7-5.4-1.7c-0.7,0.4-1.3,1-1.7,1.7c-0.7,1.4-0.7,3,0,4.4c0.3,0.6,0.9,1.2,1.5,1.5 C97.8,27.2,98.5,27.4,99.2,27.4z M104.4,29.4c-0.3,0-0.6-0.1-0.8-0.3c-0.2-0.2-0.3-0.5-0.3-0.8v-3.5l0.4-2.4l1.9,0.8v5.1 c0,0.3-0.1,0.6-0.3,0.8C105,29.3,104.7,29.4,104.4,29.4L104.4,29.4z"></path> <path class="st0" d="M108.4,29.4c-0.3,0-0.6-0.1-0.8-0.3c-0.2-0.2-0.3-0.5-0.3-0.8V17.9c0-0.3,0.1-0.6,0.3-0.9 c0.2-0.2,0.5-0.3,0.8-0.3c0.6,0,1.1,0.4,1.2,1c0,0,0,0.1,0,0.1v10.3c0,0.3-0.1,0.6-0.3,0.8C109,29.3,108.7,29.4,108.4,29.4z M116.1,29.4c-0.3,0-0.6-0.1-0.8-0.3c-0.2-0.2-0.3-0.5-0.3-0.8v-6.6c0.1-0.8-0.2-1.6-0.7-2.2c-0.5-0.5-1.2-0.7-1.9-0.7 c-0.8,0-1.5,0.3-2,0.8c-0.5,0.6-0.8,1.3-0.8,2.1h-1.4c0-0.9,0.2-1.8,0.6-2.6c0.4-0.7,1-1.4,1.7-1.8c0.7-0.4,1.6-0.7,2.4-0.6 c0.8,0,1.6,0.2,2.3,0.6c0.7,0.4,1.2,1,1.6,1.7c0.4,0.8,0.6,1.8,0.6,2.7v6.6C117.3,28.8,116.8,29.4,116.1,29.4 C116.1,29.4,116.1,29.4,116.1,29.4L116.1,29.4z M123.8,29.4c-0.3,0-0.6-0.1-0.8-0.3c-0.2-0.2-0.4-0.5-0.3-0.8v-6.6 c0.1-0.8-0.2-1.6-0.7-2.2c-0.5-0.5-1.2-0.7-1.9-0.7c-0.8,0-1.5,0.3-2,0.8c-0.5,0.6-0.8,1.3-0.8,2.1h-1.9c0-0.9,0.2-1.8,0.6-2.6 c0.4-0.8,1.1-1.4,1.8-1.8c0.8-0.4,1.7-0.7,2.7-0.6c0.8,0,1.6,0.2,2.3,0.6c0.7,0.4,1.2,1,1.6,1.7c0.4,0.8,0.6,1.8,0.6,2.7v6.6 C124.9,28.8,124.4,29.4,123.8,29.4C123.8,29.4,123.8,29.4,123.8,29.4L123.8,29.4z"></path> <path class="st0" d="M132.9,29.4c-1.2,0-2.4-0.3-3.4-0.8c-1-0.5-1.8-1.3-2.3-2.3c-0.6-1-0.9-2.2-0.8-3.3c0-1.2,0.2-2.3,0.8-3.3 c0.5-0.9,1.3-1.7,2.2-2.3c1-0.6,2.1-0.8,3.2-0.8c1.1,0,2.2,0.2,3.1,0.8c0.9,0.5,1.6,1.3,2,2.2c0.5,1,0.7,2.1,0.7,3.2 c0,0.3-0.1,0.5-0.3,0.7c-0.2,0.2-0.5,0.3-0.8,0.3H128V22h9.2l-0.9,0.6c0-0.7-0.2-1.4-0.5-2.1c-0.3-0.6-0.7-1.1-1.2-1.5 c-0.6-0.4-1.3-0.6-2-0.5c-0.8,0-1.6,0.2-2.2,0.6c-0.6,0.4-1.1,0.9-1.4,1.6c-0.3,0.7-0.5,1.5-0.5,2.3c0,0.8,0.2,1.6,0.6,2.3 c0.4,0.7,0.9,1.2,1.6,1.6c0.7,0.4,1.5,0.6,2.3,0.6c0.5,0,1-0.1,1.5-0.3c0.4-0.1,0.8-0.3,1.2-0.6c0.2-0.2,0.5-0.3,0.8-0.3 c0.3,0,0.5,0.1,0.7,0.2c0.2,0.2,0.4,0.5,0.4,0.8c0,0.3-0.1,0.6-0.4,0.7c-0.6,0.4-1.3,0.8-2,1C134.4,29.3,133.7,29.4,132.9,29.4z"></path> <path class="st0" d="M138.9,19.2c-0.3,0-0.6-0.1-0.8-0.3c-0.2-0.2-0.3-0.4-0.3-0.7c0-0.3,0.1-0.5,0.3-0.7 c0.2-0.2,0.5-0.3,0.8-0.3h5.3c0.3,0,0.6,0.1,0.8,0.3c0.2,0.2,0.3,0.5,0.3,0.7c0,0.3-0.1,0.5-0.3,0.7c-0.2,0.2-0.5,0.3-0.8,0.3 H138.9z M144,29.4c-0.7,0-1.5-0.2-2.1-0.6c-0.6-0.4-1.1-0.9-1.5-1.6c-0.4-0.7-0.5-1.5-0.5-2.3v-11c0-0.6,0.5-1.1,1.1-1.2 c0,0,0,0,0.1,0c0.6,0,1.1,0.5,1.2,1.1c0,0,0,0.1,0,0.1v11c0,0.6,0.2,1.1,0.5,1.5c0.3,0.4,0.8,0.6,1.2,0.6h0.8 c0.3,0,0.5,0.1,0.7,0.3c0.2,0.2,0.3,0.5,0.3,0.8c0,0.3-0.1,0.6-0.4,0.8c-0.3,0.2-0.6,0.3-1,0.3L144,29.4z"></path> <path class="st0" d="M148.3,14.7c-0.8,0-1.5-0.7-1.5-1.5c0-0.4,0.2-0.8,0.4-1.1c0.3-0.3,0.7-0.5,1.1-0.4c0.8,0,1.5,0.7,1.5,1.5 c0,0.4-0.2,0.8-0.4,1.1C149.1,14.5,148.7,14.7,148.3,14.7z M148.3,29.3c-0.3,0-0.6-0.1-0.8-0.3c-0.2-0.2-0.4-0.5-0.3-0.8V17.9 c0-0.3,0.1-0.6,0.3-0.9c0.5-0.4,1.2-0.4,1.7,0c0.2,0.2,0.3,0.5,0.3,0.9v10.3c0,0.6-0.4,1.1-1,1.2 C148.3,29.4,148.3,29.4,148.3,29.3L148.3,29.3z"></path> <path class="st0" d="M157.7,29.4c-1.1,0-2.3-0.3-3.3-0.8c-0.9-0.5-1.7-1.3-2.3-2.3c-0.6-1-0.8-2.1-0.8-3.3c0-1.2,0.3-2.3,0.8-3.3 c0.5-0.9,1.3-1.7,2.2-2.3c1-0.6,2.1-0.8,3.2-0.8c0.9,0,1.7,0.2,2.5,0.5c0.8,0.4,1.4,0.9,2,1.6c0.2,0.2,0.3,0.5,0.2,0.8 c-0.1,0.3-0.3,0.5-0.5,0.7c-0.2,0.1-0.5,0.2-0.7,0.1c-0.3-0.1-0.5-0.2-0.7-0.4c-0.7-0.8-1.7-1.2-2.8-1.2c-0.7,0-1.4,0.2-2.1,0.5 c-0.6,0.4-1.1,0.9-1.4,1.5c-0.4,0.7-0.5,1.5-0.5,2.3c0,0.8,0.2,1.5,0.5,2.2c0.7,1.3,2.1,2.1,3.6,2.1c0.5,0,1-0.1,1.4-0.2 c0.4-0.1,0.8-0.3,1.1-0.6c0.2-0.2,0.5-0.3,0.8-0.3c0.3,0,0.5,0.1,0.7,0.2c0.2,0.2,0.4,0.4,0.4,0.7c0,0.3-0.1,0.5-0.3,0.7 C160.7,28.9,159.2,29.5,157.7,29.4z"></path> <path class="st0" d="M169.2,29.4c-1.1,0-2.1-0.3-3-0.8c-0.9-0.6-1.6-1.3-2.1-2.3c-0.5-1-0.8-2.1-0.8-3.3c0-1.1,0.3-2.3,0.8-3.3 c0.5-1,1.3-1.7,2.3-2.3c3-1.8,6.9-0.8,8.7,2.2c0,0,0,0,0,0.1c0.6,1,0.9,2.1,0.8,3.3h-0.9c0,1.1-0.2,2.3-0.8,3.3 c-0.5,0.9-1.2,1.7-2.1,2.3C171.4,29.2,170.3,29.5,169.2,29.4z M169.7,27.4c0.7,0,1.5-0.2,2.1-0.6c0.6-0.4,1.1-0.9,1.4-1.5 c0.7-1.4,0.7-3,0-4.4c-1-2-3.4-2.7-5.4-1.7c-0.7,0.4-1.3,1-1.7,1.7c-0.7,1.4-0.7,3,0,4.4c0.3,0.6,0.9,1.2,1.5,1.5 C168.2,27.2,169,27.4,169.7,27.4z M174.9,29.4c-0.3,0-0.6-0.1-0.9-0.4c-0.2-0.2-0.3-0.5-0.3-0.8v-3.5l0.4-2.4l1.9,0.8v5.1 c0,0.3-0.1,0.6-0.3,0.8C175.5,29.3,175.2,29.4,174.9,29.4L174.9,29.4z"></path> </g> <g> <path class="st0" d="M61.7,38.1c-0.3,0-0.5-0.1-0.8-0.2c-0.2-0.1-0.5-0.3-0.6-0.5c-0.2-0.2-0.3-0.4-0.4-0.7 c-0.3-0.8-0.2-1.7,0.4-2.3c0.2-0.2,0.4-0.3,0.7-0.5c0.3-0.1,0.5-0.2,0.8-0.2c0.2,0,0.5,0,0.7,0.1c0.2,0.1,0.4,0.2,0.6,0.3 l0.1,0.1c0,0,0,0,0,0.1c0,0,0,0.1,0,0.1c0,0.1,0,0.1-0.1,0.1c0,0-0.1,0.1-0.1,0.1c-0.1,0-0.1,0-0.2-0.1c-0.1-0.1-0.3-0.2-0.4-0.3 c-0.2-0.1-0.4-0.1-0.5-0.1c-0.2,0-0.4,0-0.6,0.1c-0.2,0.1-0.4,0.2-0.5,0.3c-0.1,0.2-0.3,0.3-0.3,0.5c-0.2,0.6-0.1,1.3,0.3,1.8 c0.1,0.1,0.3,0.3,0.5,0.3c0.2,0.1,0.4,0.1,0.6,0.1c0.2,0,0.4,0,0.5-0.1c0.2-0.1,0.3-0.1,0.5-0.3c0.1,0,0.1,0,0.2,0 c0.1,0,0.1,0,0.1,0.1c0,0,0.1,0.1,0.1,0.2c0,0,0,0.1,0,0.1c0,0,0,0.1-0.1,0.1c-0.2,0.2-0.4,0.3-0.6,0.3 C62.1,38.1,61.9,38.1,61.7,38.1z M63,37.4l-0.5-0.1v-1h-0.8c-0.1,0-0.1,0-0.2-0.1c0,0-0.1-0.1-0.1-0.2c0-0.1,0.1-0.1,0.1-0.1 c0.1,0,0.1-0.1,0.2-0.1h1c0.1,0,0.2,0.1,0.2,0.2c0,0,0,0,0,0L63,37.4z"></path> <path class="st0" d="M68,38c-0.1,0-0.1,0-0.2-0.1c-0.1,0-0.1-0.1-0.1-0.2v-3.6c0-0.1,0.1-0.2,0.2-0.2c0,0,0,0,0,0 c0.1,0,0.1,0,0.2,0.1c0,0,0.1,0.1,0.1,0.2v3.6c0,0.1,0,0.1-0.1,0.2C68.1,38,68.1,38,68,38z"></path> <path class="st0" d="M74.6,38c-0.1,0-0.2-0.1-0.2-0.2l-1.6-3.6c0-0.1,0-0.2,0-0.3c0-0.1,0.1-0.1,0.2-0.1c0.1,0,0.2,0.1,0.2,0.2 l1.4,3.3h-0.1l1.4-3.3c0,0,0-0.1,0.1-0.1c0,0,0.1,0,0.2,0c0.1,0,0.2,0,0.2,0.1c0,0.1,0,0.2,0,0.2l-1.6,3.6c0,0-0.1,0.1-0.1,0.1 C74.7,38,74.7,38,74.6,38z"></path> <path class="st0" d="M81.2,38c-0.1,0-0.1,0-0.2-0.1c-0.1,0-0.1-0.1-0.1-0.2v-3.6c0-0.1,0.1-0.2,0.2-0.2c0,0,0,0,0,0 c0.1,0,0.1,0,0.2,0.1c0,0,0.1,0.1,0.1,0.2v3.6C81.4,37.9,81.3,38,81.2,38C81.2,38,81.2,38,81.2,38z"></path> <path class="st0" d="M86.6,38c-0.1,0-0.1,0-0.2-0.1c-0.1,0-0.1-0.1-0.1-0.2v-3.6c0-0.1,0.1-0.2,0.2-0.2c0,0,0,0,0,0 c0.1,0,0.1,0,0.2,0.1l2.4,3.1v-3c0-0.1,0-0.1,0.1-0.2c0,0,0.1-0.1,0.2-0.1c0.1,0,0.2,0.1,0.2,0.2c0,0,0,0,0,0v3.6 c0,0.1,0,0.1-0.1,0.2c0,0-0.1,0.1-0.2,0.1c0,0-0.1,0-0.1,0c0,0-0.1,0-0.1-0.1l-2.4-3.1v3c0,0.1,0,0.1-0.1,0.2 C86.8,38,86.7,38,86.6,38z"></path> <path class="st0" d="M96.5,38.1c-0.5,0-1.1-0.2-1.5-0.6c-0.2-0.2-0.3-0.4-0.4-0.7c-0.2-0.5-0.2-1.1,0-1.7 c0.1-0.2,0.2-0.5,0.4-0.7c0.2-0.2,0.4-0.3,0.7-0.5c0.3-0.1,0.5-0.2,0.8-0.2c0.2,0,0.5,0,0.7,0.1c0.2,0.1,0.4,0.2,0.6,0.3 c0,0,0,0,0.1,0.1c0,0,0,0,0,0.1c0,0,0,0,0,0.1c0,0.1,0,0.1-0.1,0.1c0,0-0.1,0.1-0.2,0.1c-0.1,0-0.1,0-0.2-0.1 c-0.1-0.1-0.3-0.2-0.4-0.3c-0.2-0.1-0.4-0.1-0.6-0.1c-0.2,0-0.4,0-0.6,0.1c-0.2,0.1-0.3,0.2-0.5,0.3c-0.1,0.2-0.3,0.3-0.3,0.5 c-0.4,0.8,0,1.8,0.8,2.2c0.2,0.1,0.4,0.1,0.6,0.1c0.2,0,0.4,0,0.5-0.1c0.2-0.1,0.3-0.1,0.5-0.3c0.1,0,0.1,0,0.2,0 c0.1,0,0.2,0.1,0.2,0.2c0,0,0,0.1,0,0.1c0,0,0,0.1-0.1,0.1c-0.2,0.2-0.4,0.3-0.6,0.3C96.9,38.1,96.7,38.1,96.5,38.1z M97.8,37.4 l-0.5-0.1v-1h-0.8c-0.1,0-0.1,0-0.2-0.1c0,0-0.1-0.1-0.1-0.2c0,0,0-0.1,0.1-0.1c0,0,0.1-0.1,0.2-0.1h1c0.1,0,0.1,0,0.2,0.1 c0,0,0.1,0.1,0.1,0.2L97.8,37.4z"></path> <path class="st0" d="M108.3,38c-0.1,0-0.2-0.1-0.3-0.2c0,0,0,0,0,0v-3.6c0-0.1,0-0.1,0.1-0.2c0.1,0,0.1-0.1,0.2-0.1h0.9 c0.3,0,0.6,0,0.8,0.2c0.5,0.2,0.9,0.6,1.1,1.1c0.1,0.3,0.2,0.5,0.2,0.8c0,0.3,0,0.6-0.2,0.8c-0.1,0.2-0.2,0.5-0.4,0.7 c-0.2,0.2-0.4,0.3-0.6,0.4c-0.3,0.1-0.5,0.1-0.8,0.1L108.3,38z M108.5,37.6h0.7c0.3,0,0.6-0.1,0.8-0.2c0.2-0.1,0.4-0.3,0.6-0.6 c0.3-0.5,0.3-1.1,0-1.7c-0.1-0.2-0.3-0.4-0.6-0.6c-0.2-0.1-0.5-0.2-0.8-0.2h-0.7V37.6z"></path> <path class="st0" d="M115.7,38c-0.1,0-0.2,0-0.2-0.1c0-0.1,0-0.2,0-0.2l1.5-3.6c0-0.1,0.1-0.2,0.2-0.2c0.1,0,0.2,0.1,0.2,0.2 l1.5,3.6c0,0.1,0,0.2,0,0.2c0,0.1-0.1,0.1-0.2,0.1c0,0-0.1,0-0.1,0c0,0-0.1-0.1-0.1-0.1l-1.3-3.3h0.2l-1.4,3.3 c0,0-0.1,0.1-0.1,0.1C115.8,38,115.8,38,115.7,38z M116,37.1l0.2-0.4h2.1l0.2,0.4H116z"></path> <path class="st0" d="M122.8,34.4c-0.1,0-0.2-0.1-0.2-0.2s0.1-0.2,0.2-0.2c0,0,0,0,0,0h2.8c0.1,0,0.2,0.1,0.2,0.2 s-0.1,0.2-0.2,0.2c0,0,0,0,0,0H122.8z M124.2,38c-0.1,0-0.1,0-0.2-0.1c0,0-0.1-0.1-0.1-0.2v-3.8h0.5v3.8c0,0.1,0,0.1-0.1,0.2 C124.4,38,124.3,38,124.2,38z"></path> <path class="st0" d="M129.8,38c-0.1,0-0.2,0-0.2-0.1c0-0.1,0-0.2,0-0.2l1.5-3.6c0-0.1,0.1-0.2,0.2-0.2c0.1,0,0.2,0.1,0.2,0.2 l1.5,3.6c0,0.1,0,0.2,0,0.2c0,0.1-0.1,0.1-0.2,0.1c0,0-0.1,0-0.1,0c0,0-0.1-0.1-0.1-0.1l-1.4-3.3h0.1l-1.4,3.3 c0,0-0.1,0.1-0.1,0.1C129.9,38,129.8,38,129.8,38z M130.1,37.1l0.2-0.4h2.1l0.2,0.4H130.1z"></path> <path class="st0" d="M143.9,38c0,0-0.1,0-0.1,0c0,0-0.1-0.1-0.1-0.1l-1.1-3.6c0-0.1,0-0.2,0-0.2c0-0.1,0.1-0.1,0.2-0.1 c0.1,0,0.1,0,0.1,0c0.1,0,0.1,0.1,0.1,0.1l0.9,3.3h-0.1l0.9-3.2c0-0.1,0-0.1,0.1-0.1c0.1-0.1,0.2-0.1,0.3,0c0,0,0.1,0.1,0.1,0.1 l0.9,3.2h-0.1l0.9-3.3c0-0.1,0.1-0.2,0.2-0.2c0.1,0,0.2,0,0.2,0.1c0,0.1,0,0.2,0,0.2l-1.1,3.5c0,0.1-0.1,0.1-0.1,0.2 c0,0-0.1,0-0.1,0c-0.1,0-0.1,0-0.2,0c0,0-0.1-0.1-0.1-0.1l-0.9-3.3h0.2l-0.9,3.3c0,0.1-0.1,0.1-0.1,0.2C144,38,143.9,38,143.9,38 z"></path> <path class="st0" d="M152.1,38c-0.1,0-0.1,0-0.2-0.1c-0.1,0-0.1-0.1-0.1-0.2v-3.6c0-0.1,0-0.1,0.1-0.2c0-0.1,0.1-0.1,0.2-0.1 c0.1,0,0.1,0,0.2,0.1c0,0.1,0.1,0.1,0.1,0.2v3.6c0,0.1,0,0.1-0.1,0.2C152.2,38,152.1,38,152.1,38z"></path> <path class="st0" d="M157.5,38c-0.1,0-0.1,0-0.2-0.1c0,0-0.1-0.1-0.1-0.2v-3.6c0-0.1,0-0.1,0.1-0.2c0,0,0.1-0.1,0.2-0.1 c0.1,0,0.1,0,0.2,0.1l2.3,3.1v-3c0-0.1,0.1-0.2,0.2-0.2c0,0,0,0,0,0c0.1,0,0.1,0,0.2,0.1c0,0,0.1,0.1,0.1,0.2v3.6 c0,0.1,0,0.1-0.1,0.2c0,0-0.1,0.1-0.2,0.1c0,0-0.1,0-0.1,0c0,0-0.1,0-0.1-0.1l-2.4-3.1v3c0,0.1,0,0.1-0.1,0.2 C157.6,38,157.5,38,157.5,38z"></path> <path class="st0" d="M167.3,38.1c-0.3,0-0.5-0.1-0.8-0.2c-0.2-0.1-0.5-0.3-0.6-0.5c-0.2-0.2-0.3-0.4-0.4-0.7 c-0.3-0.8-0.2-1.7,0.4-2.3c0.2-0.2,0.4-0.3,0.6-0.5c0.3-0.1,0.5-0.2,0.8-0.2c0.2,0,0.5,0,0.7,0.1c0.2,0.1,0.4,0.2,0.6,0.3 c0,0,0,0,0.1,0.1c0,0,0,0,0,0.1c0,0,0,0.1,0,0.1c0,0.1,0,0.1-0.1,0.1c0,0-0.1,0.1-0.1,0.1c-0.1,0-0.1,0-0.2-0.1 c-0.1-0.1-0.3-0.2-0.4-0.3c-0.2-0.1-0.4-0.1-0.6-0.1c-0.2,0-0.4,0-0.6,0.1c-0.2,0.1-0.4,0.2-0.5,0.3c-0.1,0.2-0.3,0.3-0.3,0.5 c-0.2,0.6-0.1,1.3,0.3,1.8c0.1,0.1,0.3,0.3,0.5,0.3c0.2,0.1,0.4,0.1,0.6,0.1c0.2,0,0.4,0,0.5-0.1c0.2-0.1,0.3-0.1,0.5-0.3 c0.1,0,0.1,0,0.2,0c0.1,0,0.2,0.1,0.2,0.2c0,0,0,0,0,0c0,0,0,0.1,0,0.1c0,0,0,0.1-0.1,0.1c-0.2,0.2-0.4,0.3-0.6,0.3 C167.8,38.1,167.5,38.1,167.3,38.1z M168.7,37.4l-0.5-0.1v-1h-0.8c-0.1,0-0.1,0-0.2-0.1c0,0-0.1-0.1-0.1-0.2c0-0.1,0-0.1,0.1-0.2 c0.1,0,0.1-0.1,0.2-0.1h1c0.1,0,0.2,0.1,0.2,0.2c0,0,0,0,0,0L168.7,37.4z"></path> <path class="st0" d="M174.7,38.1c-0.2,0-0.4,0-0.6-0.1c-0.2-0.1-0.4-0.2-0.5-0.3c-0.1-0.1-0.3-0.3-0.3-0.4c0-0.1,0-0.1,0-0.2 c0-0.1,0.1-0.1,0.2-0.1c0.1,0,0.1,0,0.2,0c0.1,0,0.1,0.1,0.1,0.1c0,0.1,0.1,0.2,0.2,0.2c0.1,0.1,0.2,0.1,0.4,0.2 c0.1,0,0.3,0.1,0.4,0.1c0.2,0,0.3,0,0.5-0.1c0.1,0,0.3-0.1,0.3-0.2c0.1-0.1,0.1-0.2,0.1-0.4c0-0.2-0.1-0.4-0.2-0.5 c-0.2-0.2-0.5-0.3-0.7-0.3c-0.4,0-0.7-0.2-1-0.4c-0.2-0.2-0.4-0.5-0.4-0.8c0-0.2,0.1-0.4,0.2-0.6c0.1-0.1,0.3-0.3,0.5-0.3 c0.2-0.1,0.5-0.1,0.7-0.1c0.5,0,1,0.3,1.3,0.7c0,0.1,0.1,0.1,0.1,0.2c0,0.1,0,0.1-0.1,0.1c-0.1,0-0.1,0-0.2,0 c-0.1,0-0.1-0.1-0.2-0.1c-0.1-0.1-0.1-0.2-0.2-0.2c-0.1-0.1-0.2-0.1-0.3-0.2c-0.1,0-0.3-0.1-0.4-0.1c-0.2,0-0.5,0-0.6,0.2 c-0.2,0.1-0.3,0.3-0.3,0.5c0,0.1,0,0.2,0.1,0.3c0.1,0.1,0.2,0.2,0.3,0.3c0.2,0.1,0.4,0.1,0.6,0.2c0.4,0,0.7,0.2,1,0.4 c0.2,0.2,0.3,0.5,0.3,0.8c0,0.2,0,0.4-0.1,0.5c-0.1,0.1-0.2,0.3-0.3,0.4c-0.1,0.1-0.3,0.2-0.5,0.2 C175.1,38,174.9,38.1,174.7,38.1z"></path> </g> </g> <g> <circle class="st1" cx="24.9" cy="24.2" r="22.9"></circle> <g> <path class="st2" d="M14.6,31.2c-1.1,0-2.3-0.3-3.2-0.8c-0.9-0.5-1.7-1.3-2.3-2.3c-0.6-1-0.9-2.1-0.8-3.3c0-1.1,0.2-2.3,0.8-3.3 c0.5-0.9,1.2-1.7,2.1-2.3c1.7-1,3.8-1.1,5.5-0.2c0.8,0.4,1.4,0.9,1.9,1.5v-6.2c0-0.3,0.1-0.6,0.3-0.9c0.2-0.2,0.5-0.3,0.8-0.3 c0.6-0.1,1.1,0.4,1.2,1c0,0.1,0,0.1,0,0.2v10.5c0,1.1-0.3,2.3-0.8,3.3C19,30,16.9,31.2,14.6,31.2L14.6,31.2z M14.6,29.1 c1.5,0,2.9-0.8,3.6-2.1c0.7-1.4,0.7-3,0-4.4c-0.3-0.6-0.8-1.2-1.5-1.5c-0.6-0.4-1.4-0.6-2.1-0.6c-0.7,0-1.5,0.2-2.1,0.6 c-0.6,0.4-1.1,0.9-1.5,1.5c-0.7,1.4-0.7,3,0,4.4c0.3,0.6,0.9,1.2,1.5,1.6C13.2,28.9,13.9,29.1,14.6,29.1z"></path> <path class="st2" d="M24.5,31.1c-0.6,0-1.2-0.5-1.2-1.1c0,0,0,0,0,0V19.7c0-0.3,0.1-0.6,0.3-0.9c0.5-0.4,1.2-0.4,1.7,0 c0.2,0.2,0.3,0.5,0.3,0.9V30C25.7,30.6,25.2,31.2,24.5,31.1C24.5,31.2,24.5,31.2,24.5,31.1L24.5,31.1z M32.2,31.1 c-0.3,0-0.6-0.1-0.8-0.3C31.1,30.6,31,30.3,31,30v-6.6c0.1-0.8-0.2-1.6-0.7-2.2c-0.5-0.5-1.2-0.7-1.9-0.7c-0.8,0-1.5,0.3-2,0.8 c-0.5,0.6-0.8,1.3-0.8,2.1h-1.4c0-0.9,0.2-1.8,0.6-2.6c0.4-0.8,0.9-1.4,1.7-1.8c1.5-0.8,3.3-0.8,4.8,0c0.7,0.4,1.2,1,1.6,1.7 c0.4,0.8,0.6,1.8,0.6,2.7V30C33.4,30.6,32.9,31.2,32.2,31.1C32.2,31.2,32.2,31.2,32.2,31.1L32.2,31.1z M39.8,31.1 c-0.6,0-1.2-0.5-1.2-1.1c0,0,0,0,0,0v-6.6c0.1-0.8-0.2-1.6-0.7-2.2c-0.5-0.5-1.2-0.7-1.9-0.7c-0.8,0-1.5,0.3-2,0.8 c-0.5,0.6-0.8,1.3-0.8,2.1h-1.9c0-0.9,0.2-1.8,0.7-2.6c0.4-0.8,1-1.4,1.8-1.8c0.8-0.4,1.7-0.7,2.7-0.6c0.8,0,1.6,0.2,2.3,0.6 c0.7,0.4,1.2,1,1.6,1.7c0.4,0.9,0.6,1.8,0.5,2.8V30C41,30.6,40.5,31.2,39.8,31.1C39.9,31.2,39.9,31.2,39.8,31.1L39.8,31.1z"></path> </g> </g> </g> </svg> 